<svg width="52" height="62" viewBox="0 0 52 62" fill="none" xmlns="http://www.w3.org/2000/svg">
<path d="M48.6665 61.6666H3.33317C1.85984 61.6666 0.666504 60.4733 0.666504 59V2.99998C0.666504 1.52665 1.85984 0.333313 3.33317 0.333313H35.3332L51.3332 16.3333V59C51.3332 60.4733 50.1398 61.6666 48.6665 61.6666Z" fill="#42C950"/>
<path d="M35.333 0.333313V13.6666C35.333 15.14 36.5263 16.3333 37.9997 16.3333H51.333L35.333 0.333313Z" fill="#4FA800"/>
<path d="M20.6665 40.3333C20.3252 40.3333 19.9838 40.2027 19.7238 39.9427L14.3905 34.6093C13.8692 34.088 13.8692 33.2453 14.3905 32.724C14.9118 32.2027 15.7545 32.2027 16.2758 32.724L20.6665 37.1147L35.7238 22.0573C36.2452 21.536 37.0878 21.536 37.6092 22.0573C38.1305 22.5787 38.1305 23.4213 37.6092 23.9427L21.6092 39.9427C21.3492 40.2027 21.0078 40.3333 20.6665 40.3333Z" fill="white"/>
</svg>
