<svg width="195" height="194" viewBox="0 0 195 194" fill="none" xmlns="http://www.w3.org/2000/svg">
<circle opacity="0.3" cx="97.5" cy="97" r="97" fill="#FFECB3"/>
<path d="M132.34 81.8034L112.587 61.9184C112.438 61.7662 112.262 61.645 112.067 61.5618C111.872 61.4786 111.663 61.4349 111.451 61.4334H83.5074C83.0815 61.4335 82.6731 61.6039 82.372 61.9071L62.6187 81.8034C62.3203 82.1037 62.1512 82.5103 62.1482 82.9351V111.065C62.1483 111.494 62.3175 111.905 62.6187 112.208L82.372 132.093C82.6731 132.396 83.0815 132.567 83.5074 132.567H111.451C111.877 132.567 112.285 132.396 112.587 132.093L132.34 112.208C132.641 111.905 132.81 111.494 132.81 111.065V82.9351C132.807 82.5103 132.638 82.1037 132.34 81.8034Z" fill="#FFDF80"/>
<path d="M97.4793 119.633C96.844 119.633 96.223 119.444 95.6948 119.089C95.1666 118.733 94.755 118.228 94.5119 117.637C94.2688 117.047 94.2051 116.397 94.3291 115.769C94.453 115.142 94.7589 114.566 95.2081 114.114C95.6573 113.662 96.2296 113.354 96.8527 113.229C97.4757 113.104 98.1215 113.168 98.7084 113.413C99.2953 113.658 99.797 114.072 100.15 114.604C100.503 115.135 100.691 115.761 100.691 116.4C100.691 117.258 100.353 118.08 99.7505 118.686C99.1481 119.293 98.3311 119.633 97.4793 119.633ZM99.1575 106.977H95.8637L94.2674 73.5374H100.76L99.1575 106.977Z" fill="#454F5B"/>
</svg>
